<mxfile host="app.diagrams.net" modified="2022-06-21T05:08:30.450Z" agent="5.0 (Windows NT 10.0; Win64; x64) AppleWebKit/537.36 (KHTML, like Gecko) Chrome/102.0.0.0 Safari/537.36" etag="sVOnCEM6FzXYAl9iWOsz" version="20.0.1" type="github">
  <diagram id="fIoxSlb22QgJ5czsfE2g" name="Page-1">
    <mxGraphModel dx="716" dy="394" grid="1" gridSize="10" guides="1" tooltips="1" connect="1" arrows="1" fold="1" page="1" pageScale="1" pageWidth="850" pageHeight="1100" math="0" shadow="0">
      <root>
        <mxCell id="0" />
        <mxCell id="1" parent="0" />
        <mxCell id="mqxkUcOXHhxXkRw-2WVW-2" value="" style="rounded=1;whiteSpace=wrap;html=1;" vertex="1" parent="1">
          <mxGeometry x="40" y="10" width="120" height="250" as="geometry" />
        </mxCell>
        <mxCell id="mqxkUcOXHhxXkRw-2WVW-1" value="User Sign-up" style="text;html=1;align=center;verticalAlign=middle;resizable=0;points=[];autosize=1;strokeColor=none;fillColor=none;" vertex="1" parent="1">
          <mxGeometry x="40" y="30" width="90" height="20" as="geometry" />
        </mxCell>
      </root>
    </mxGraphModel>
  </diagram>
</mxfile>
